<?xml version="1.0" encoding="UTF-8"?>
<svg width="460px" height="512px" viewBox="0 0 460 512" version="1.1" xmlns="http://www.w3.org/2000/svg" xmlns:xlink="http://www.w3.org/1999/xlink">
    <!-- Generator: Sketch 52.2 (67145) - http://www.bohemiancoding.com/sketch -->
    <title>brain</title>
    <desc>Created with Sketch.</desc>
    <g id="brain" stroke="none" stroke-width="1" fill="none" fill-rule="evenodd">
        <rect fill="#9B9B9B" x="0" y="0" width="460" height="512"></rect>
        <g fill="#FFFFFF">
            <path d="M447.123,298.882 C455.706,286 460,269.927 460,256 C460,235.004 450.673,215.497 434.668,202.269 C438.21,193.805 440,185.002 440,176 C440,148.145 423.744,122.197 399.575,110.08 C403.242,79.666 383.424,51.788 354.055,44.677 C342.56,18.104 316.975,0 290,0 C264.89,0 242.369,14.646 230,36.016 C217.63,14.646 195.109,0 170,0 C143.023,0 117.438,18.104 105.945,44.678 C76.4,51.834 56.768,79.851 60.425,110.08 C36.257,122.196 20,148.145 20,176 C20,185.002 21.79,193.805 25.332,202.269 C9.327,215.498 0,235.004 0,256 C0,270 4.33,286.052 12.877,298.881 C4.525,310.671 0,324.644 0,339 C0,357.616 7.548,375.35 20.899,388.518 C14.035,430.01 47.125,472 90,472 C90.31,472 90.615,471.995 90.914,471.986 C105.129,496.508 131.515,512 160,512 C189.688,512 216.216,494.18 230,468.506 C243.784,494.18 270.312,512 300,512 C328.485,512 354.871,496.508 369.086,471.986 C369.386,471.995 369.69,472 370,472 C407.944,472 440,438.57 440,399 C440,395.631 439.704,392.166 439.101,388.518 C452.452,375.35 460,357.617 460,339 C460,324.644 455.475,310.671 447.123,298.882 Z M220,151.381 C214.112,147.966 207.283,146 200,146 C194.477,146 190,150.477 190,156 C190,161.523 194.477,166 200,166 C211.028,166 220,174.972 220,186 L220,376.169 C205.329,359.528 183.877,349 160,349 C154.477,349 150,353.477 150,359 C150,364.523 154.477,369 160,369 C193.084,369 220,395.916 220,429 C220,463.149 192.523,492 160,492 C136.848,492 115.535,478.309 105.701,457.12 C103.888,453.215 99.782,450.912 95.501,451.394 C94.794,451.475 94.091,451.569 93.388,451.665 C64.928,455.557 32.878,423.33 41.554,387.278 C42.445,383.575 41.155,379.689 38.228,377.253 C26.644,367.614 20,353.671 20,339 C20,329.929 22.565,321.052 27.338,313.268 C39.332,323.098 54.251,329 70,329 C75.523,329 80,324.523 80,319 C80,313.477 75.523,309 70,309 C42.861,309 20,284.23 20,256 C20,238.875 28.729,223.121 43.352,213.858 C47.857,211.004 49.33,205.117 46.699,200.478 C42.254,192.639 40,184.403 40,176 C40,149.01 62.002,123 90,123 C116.636,123 140,147.767 140,176 C140,181.523 144.477,186 150,186 C155.523,186 160,181.523 160,176 C160,136.43 127.944,103 90,103 C86.652,103 83.322,103.271 80.025,103.784 C80.02,103.521 80,103.265 80,103 C80,80.683 98.117,63 120,63 C130.682,63 140.73,67.161 148.292,74.715 C152.199,78.618 158.53,78.614 162.434,74.708 C166.337,70.8 166.334,64.469 162.427,60.566 C153.304,51.453 141.765,45.641 129.26,43.715 C138.079,30.624 152.744,20 170,20 C196.636,20 220,44.766 220,73 L220,151.381 Z M390,329 C405.75,329 420.669,323.097 432.663,313.271 C437.435,321.054 440,329.93 440,339 C440,353.671 433.356,367.614 421.773,377.253 C418.845,379.689 417.556,383.576 418.447,387.278 C419.507,391.681 420,395.406 420,398.999 C420,430.039 391.925,455.125 366.613,451.665 C365.91,451.569 365.206,451.474 364.499,451.394 C360.212,450.909 356.111,453.215 354.3,457.12 C344.466,478.309 323.151,492 300,492 C267.477,492 240,463.149 240,429 C240,395.916 266.916,369 300,369 C305.522,369 310,364.523 310,359 C310,353.477 305.522,349 300,349 C276.123,349 254.671,359.528 240,376.169 L240,186 C240,174.972 248.972,166 260,166 C265.522,166 270,161.523 270,156 C270,150.477 265.522,146 260,146 C252.717,146 245.888,147.966 240,151.381 L240,73 C240,44.766 263.364,20 290,20 C307.256,20 321.92,30.624 330.739,43.714 C318.235,45.64 306.697,51.452 297.573,60.565 C293.665,64.468 293.661,70.799 297.564,74.707 C301.467,78.615 307.8,78.618 311.706,74.715 C319.271,67.161 329.318,63 340,63 C361.993,63 380,80.787 380,103 C380,103.264 379.98,103.521 379.975,103.784 C376.678,103.271 373.348,103 370,103 C332.056,103 300,136.43 300,176 C300,181.523 304.478,186 310,186 C315.522,186 320,181.523 320,176 C320,147.767 343.364,123 370,123 C397.982,123 420,148.997 420,176 C420,184.403 417.746,192.639 413.301,200.478 C410.671,205.117 412.144,211.004 416.649,213.858 C431.271,223.121 440,238.875 440,256 C440,284.331 417.059,309 390,309 C384.478,309 380,313.477 380,319 C380,324.523 384.478,329 390,329 Z" id="Shape" fill-rule="nonzero"></path>
            <path d="M197.453,214.053 C193.771,209.937 187.45,209.585 183.333,213.267 C151.265,241.952 100,219.027 100,176 C100,170.477 95.523,166 90,166 C84.477,166 80,170.477 80,176 C80,210.715 105.407,239.595 138.6,245.057 C134.75,257.185 123.386,266 110,266 C104.477,266 100,270.477 100,276 C100,281.523 104.477,286 110,286 C134.357,286 154.69,268.49 159.102,245.398 C173.009,243.579 186.098,237.628 196.667,228.173 C200.783,224.491 201.135,218.169 197.453,214.053 Z" id="Path"></path>
            <path d="M90,389 C84.477,389 80,393.477 80,399 C80,404.523 84.477,409 90,409 C116.636,409 140,433.767 140,462 C140,467.523 144.477,472 150,472 C155.523,472 160,467.523 160,462 C160,422.43 127.944,389 90,389 Z" id="Path"></path>
            <path d="M170,309 C136.114,309 107.02,327.585 91.7,354.608 C88.977,359.413 90.664,365.516 95.468,368.239 C100.273,370.962 106.375,369.276 109.099,364.471 C121.034,343.415 143.68,329 170,329 C175.523,329 180,324.523 180,319 C180,313.477 175.523,309 170,309 Z" id="Path"></path>
            <path d="M350,266 C336.614,266 325.25,257.185 321.4,245.057 C354.593,239.595 380,210.715 380,176 C380,170.477 375.522,166 370,166 C364.478,166 360,170.477 360,176 C360,203.57 337.57,226 310,226 C297.684,226 285.847,221.478 276.667,213.267 C272.552,209.585 266.229,209.936 262.547,214.053 C258.864,218.169 259.217,224.491 263.333,228.173 C273.902,237.628 286.992,243.579 300.898,245.398 C305.31,268.49 325.643,286 350,286 C355.522,286 360,281.523 360,276 C360,270.477 355.522,266 350,266 Z" id="Path"></path>
            <path d="M370,389 C332.056,389 300,422.43 300,462 C300,467.523 304.478,472 310,472 C315.522,472 320,467.523 320,462 C320,433.767 343.364,409 370,409 C375.522,409 380,404.523 380,399 C380,393.477 375.522,389 370,389 Z" id="Path"></path>
            <path d="M368.3,354.609 C353.018,327.65 323.964,309 290,309 C284.478,309 280,313.477 280,319 C280,324.523 284.478,329 290,329 C316.301,329 338.964,343.411 350.899,364.471 C353.626,369.282 359.733,370.96 364.53,368.24 C369.335,365.517 371.022,359.414 368.3,354.609 Z" id="Path"></path>
        </g>
    </g>
</svg>