<?xml version="1.0" encoding="UTF-8"?>
<svg width="613px" height="612px" viewBox="0 0 613 612" version="1.1" xmlns="http://www.w3.org/2000/svg" xmlns:xlink="http://www.w3.org/1999/xlink">
    <!-- Generator: Sketch 52.2 (67145) - http://www.bohemiancoding.com/sketch -->
    <title>two-converge-arrows</title>
    <desc>Created with Sketch.</desc>
    <g id="two-converge-arrows" stroke="none" stroke-width="1" fill="none" fill-rule="evenodd">
        <rect fill="#9B9B9B" x="0" y="0" width="613" height="612"></rect>
        <g id="two-extend-arrows" transform="translate(0.000000, 1.000000)" fill="#FFFFFF" fill-rule="nonzero">
            <path d="M287.494966,292.837 L66.2989663,292.837 C51.1359663,292.837 45.1959663,299.559 42.6939663,305.499 C37.6139663,317.301 46.9149663,328.322 49.4159663,331.683 L101.783966,385.692 L78.9609663,408.515 C57.8579663,429.618 35.8939663,451.582 14.7909663,472.685 C-3.81103367,491.287 -3.81103367,508.17 13.9309663,526.694 C31.6739663,544.437 49.4159663,562.961 67.0799663,580.703 L83.1029663,595.866 C85.6039663,598.367 89.0429663,601.806 92.4039663,604.307 C98.3439663,608.528 105.065966,611.029 111.787966,611.029 C118.509966,611.029 125.309966,608.528 130.389966,604.307 C133.750966,601.806 137.111966,598.367 140.550966,595.006 L226.683966,508.873 L279.051966,560.381 C281.552966,562.882 289.212966,568.822 298.435966,568.822 C306.017966,568.822 318.679966,563.742 318.679966,543.498 L318.679966,324.961 C319.540966,303.858 303.517966,292.837 287.494966,292.837 Z M287.472058,524.928 L237.684058,475.999 C231.744058,470.059 221.661058,470.059 215.721058,475.999 L213.220058,478.5 C211.500058,480.22 209.859058,481.001 208.999058,482.721 L118.645058,573.075 C116.144058,575.576 113.565058,577.296 111.063058,579.797 C108.562058,578.077 106.842058,576.436 105.123058,574.717 L89.1000583,559.553 C71.3580583,540.951 52.8330583,523.286 35.9510583,505.544 C33.4500583,503.043 32.5900583,501.323 31.7300583,500.464 C32.5900583,499.604 33.4500583,497.963 35.9510583,495.384 C57.0540583,474.281 79.0180583,452.317 100.121058,431.214 L127.946058,403.389 C129.666058,401.669 130.447058,400.028 132.167058,399.168 L133.887058,397.448 C139.827058,391.508 139.827058,381.425 133.887058,375.485 L84.9580583,324.837 L286.691058,324.837 L287.551058,324.837 C287.551058,324.837 287.551058,324.837 287.551058,325.697 L287.472058,524.928 Z M545.577305,31.63175 L529.554305,15.60875 C527.053305,13.10775 523.614305,9.66875 520.253305,7.16775 C508.451305,-1.27325 494.069305,-1.27325 482.267305,7.16775 C478.906305,9.66875 475.545305,13.10775 472.106305,16.46875 C451.003305,37.57175 430.759305,57.81575 409.655305,78.91975 L386.050305,102.52475 L333.682305,51.01675 C331.181305,48.51575 323.521305,42.57575 314.298305,42.57575 C306.716305,42.57575 294.054305,47.65575 294.054305,67.89975 L294.054305,286.51575 C294.054305,307.61875 310.077305,318.56175 326.100305,318.56175 L547.295305,318.56175 C562.458305,318.56175 568.398305,311.83975 570.900305,305.89975 C575.980305,294.09775 566.679305,283.07675 564.178305,279.71575 L511.810305,225.70675 L536.274305,201.24275 C557.377305,180.13975 577.621305,159.89575 598.725305,138.79175 C617.327305,120.18975 617.327305,103.30675 599.585305,84.78275 C580.984305,67.03875 563.241305,49.37475 545.577305,31.63175 Z M575.436305,118.033 C555.192305,139.136 534.089305,159.38 512.985305,180.484 L482.580305,210.889 C480.860305,212.609 479.219305,214.25 478.359305,215.11 L476.639305,216.83 C470.699305,222.77 470.699305,232.853 476.639305,238.793 L525.568305,289.441 L323.914305,289.441 L323.054305,289.441 C323.054305,289.441 323.054305,289.441 323.054305,288.581 L323.054305,87.707 L372.843305,136.636 C378.783305,142.576 388.006305,142.576 394.806305,136.636 L397.307305,134.916 C399.027305,133.196 400.668305,131.555 402.387305,130.695 L431.072305,102.01 C452.175305,80.907 472.419305,60.663 493.523305,39.559 C496.024305,37.058 498.603305,35.338 501.105305,32.837 C503.606305,34.557 505.326305,36.198 507.045305,37.917 L523.068305,53.94 C540.811305,71.683 558.553305,89.425 576.217305,107.089 C578.718305,109.59 579.578305,111.31 580.438305,112.169 C579.657305,113.031 578.016305,114.672 575.436305,118.033 Z" id="Shape"></path>
        </g>
    </g>
</svg>