<?xml version="1.0" encoding="UTF-8"?>
<svg width="613px" height="612px" viewBox="0 0 613 612" version="1.1" xmlns="http://www.w3.org/2000/svg" xmlns:xlink="http://www.w3.org/1999/xlink">
    <!-- Generator: Sketch 52.2 (67145) - http://www.bohemiancoding.com/sketch -->
    <title>two-extend-arrows</title>
    <desc>Created with Sketch.</desc>
    <g id="two-extend-arrows" stroke="none" stroke-width="1" fill="none" fill-rule="evenodd">
        <rect fill="#9B9B9B" x="0" y="0" width="613" height="612"></rect>
        <g fill="#FFFFFF" fill-rule="nonzero" id="Shape">
            <path d="M581.736,0.837 L360.54,0.837 C345.377,0.837 339.437,7.559 336.935,13.499 C331.855,25.301 341.156,36.322 343.657,39.683 L396.025,93.692 L373.202,116.515 C352.099,137.618 330.135,159.582 309.032,180.685 C290.43,199.287 290.43,216.17 308.172,234.694 C325.915,252.437 343.657,270.961 361.321,288.703 L377.344,303.866 C379.845,306.367 383.284,309.806 386.645,312.307 C392.585,316.528 399.307,319.029 406.029,319.029 C412.751,319.029 419.551,316.528 424.631,312.307 C427.992,309.806 431.353,306.367 434.792,303.006 L520.925,216.873 L573.293,268.381 C575.794,270.882 583.454,276.822 592.677,276.822 C600.259,276.822 612.921,271.742 612.921,251.498 L612.921,32.961 C613.782,11.858 597.759,0.837 581.736,0.837 Z M582.517,232.975 L532.729,184.046 C526.789,178.106 516.706,178.106 510.766,184.046 L508.265,186.547 C506.545,188.267 504.904,189.048 504.044,190.768 L413.69,281.122 C411.189,283.623 408.61,285.343 406.108,287.844 C403.607,286.124 401.887,284.483 400.168,282.764 L384.145,267.6 C366.403,248.998 347.878,231.333 330.996,213.591 C328.495,211.09 327.635,209.37 326.775,208.511 C327.635,207.651 328.495,206.01 330.996,203.431 C352.099,182.328 374.063,160.364 395.166,139.261 L422.991,111.436 C424.711,109.716 425.492,108.075 427.212,107.215 L428.932,105.495 C434.872,99.555 434.872,89.472 428.932,83.532 L380.003,32.884 L581.736,32.884 L582.596,32.884 C582.596,32.884 582.596,32.884 582.596,33.744 L582.517,232.975 Z M252.522,324.189 L236.499,308.166 C233.998,305.665 230.559,302.226 227.198,299.725 C215.396,291.284 201.014,291.284 189.212,299.725 C185.851,302.226 182.49,305.665 179.051,309.026 C157.948,330.129 137.704,350.373 116.6,371.477 L92.995,395.082 L40.627,343.574 C38.126,341.073 30.466,335.133 21.243,335.133 C13.661,335.133 0.999,340.213 0.999,360.457 L0.999,579.073 C0.999,600.176 17.022,611.119 33.045,611.119 L254.24,611.119 C269.403,611.119 275.343,604.397 277.845,598.457 C282.925,586.655 273.624,575.634 271.123,572.273 L218.755,518.264 L243.219,493.8 C264.322,472.697 284.566,452.453 305.67,431.349 C324.272,412.747 324.272,395.864 306.53,377.34 C287.929,359.596 270.186,341.932 252.522,324.189 Z M282.848,410.244 C262.604,431.347 241.501,451.591 220.397,472.695 L189.992,503.1 C188.272,504.82 186.631,506.461 185.771,507.321 L184.051,509.041 C178.111,514.981 178.111,525.064 184.051,531.004 L232.98,581.652 L31.326,581.652 L30.466,581.652 C30.466,581.652 30.466,581.652 30.466,580.792 L30.466,379.918 L80.255,428.847 C86.195,434.787 95.418,434.787 102.218,428.847 L104.719,427.127 C106.439,425.407 108.08,423.766 109.799,422.906 L138.484,394.221 C159.587,373.118 179.831,352.874 200.935,331.77 C203.436,329.269 206.015,327.549 208.517,325.048 C211.018,326.768 212.738,328.409 214.457,330.128 L230.48,346.151 C248.223,363.894 265.965,381.636 283.629,399.3 C286.13,401.801 286.99,403.521 287.85,404.38 C287.069,405.242 285.428,406.883 282.848,410.244 Z"></path>
        </g>
    </g>
</svg>