<?xml version="1.0" encoding="UTF-8"?>
<svg width="2200px" height="585px" viewBox="0 0 2200 585" version="1.1" xmlns="http://www.w3.org/2000/svg" xmlns:xlink="http://www.w3.org/1999/xlink">
    <!-- Generator: Sketch 52.2 (67145) - http://www.bohemiancoding.com/sketch -->
    <title>images/phases</title>
    <desc>Created with Sketch.</desc>
    <g id="images/phases" stroke="none" stroke-width="1" fill="none" fill-rule="evenodd">
        <rect id="Rectangle" fill="#4A90E2" x="0" y="0" width="2200" height="588"></rect>
        <g id="brain" transform="translate(91.000000, 109.000000)" fill="#FFFFFF">
            <g>
                <path d="M178.8492,119.669551 C182.2824,114.511719 184,108.07624 184,102.5 C184,94.0933984 180.2692,86.2829785 173.8672,80.9866113 C175.284,77.5977051 176,74.0730664 176,70.46875 C176,59.3158691 169.4976,48.9265332 159.83,44.075 C161.2968,31.8975195 153.3696,20.7354297 141.622,17.888252 C137.024,7.24867187 126.79,0 116,0 C105.956,0 96.9476,5.86412109 92,14.4204687 C87.052,5.86412109 78.0436,0 68,0 C57.2092,0 46.9752,7.24867187 42.378,17.8886523 C30.56,20.7538477 22.7072,31.9715918 24.17,44.075 C14.5028,48.9261328 8,59.3158691 8,70.46875 C8,74.0730664 8.716,77.5977051 10.1328,80.9866113 C3.7308,86.2833789 0,94.0933984 0,102.5 C0,108.105469 1.732,114.532539 5.1508,119.66915 C1.81,124.389756 0,129.984414 0,135.732422 C0,143.186094 3.0192,150.286621 8.3596,155.558965 C5.614,172.171973 18.85,188.984375 36,188.984375 C36.124,188.984375 36.246,188.982373 36.3656,188.97877 C42.0516,198.797148 52.606,205 64,205 C75.8752,205 86.4864,197.865039 92,187.58541 C97.5136,197.865039 108.1248,205 120,205 C131.394,205 141.9484,198.797148 147.6344,188.97877 C147.7544,188.982373 147.876,188.984375 148,188.984375 C163.1776,188.984375 176,175.599316 176,159.755859 C176,158.406943 175.8816,157.01959 175.6404,155.558965 C180.9808,150.286621 184,143.186494 184,135.732422 C184,129.984414 182.19,124.389756 178.8492,119.669551 Z M88,60.6115332 C85.6448,59.2441992 82.9132,58.4570312 80,58.4570312 C77.7908,58.4570312 76,60.2495801 76,62.4609375 C76,64.6722949 77.7908,66.4648438 80,66.4648438 C84.4112,66.4648438 88,70.0571484 88,74.4726562 L88,150.614541 C82.1316,143.951641 73.5508,139.736328 64,139.736328 C61.7908,139.736328 60,141.528877 60,143.740234 C60,145.951592 61.7908,147.744141 64,147.744141 C77.2336,147.744141 88,158.521055 88,171.767578 C88,185.440518 77.0092,196.992188 64,196.992188 C54.7392,196.992188 46.214,191.510439 42.2804,183.026563 C41.5552,181.463037 39.9128,180.540937 38.2004,180.733926 C37.9176,180.766357 37.6364,180.803994 37.3552,180.842432 C25.9712,182.400752 13.1512,169.497363 16.6216,155.06248 C16.978,153.579834 16.462,152.023916 15.2912,151.048564 C10.6576,147.189199 8,141.606553 8,135.732422 C8,132.100479 9.026,128.546211 10.9352,125.42957 C15.7328,129.36541 21.7004,131.728516 28,131.728516 C30.2092,131.728516 32,129.935967 32,127.724609 C32,125.513252 30.2092,123.720703 28,123.720703 C17.1444,123.720703 8,113.803027 8,102.5 C8,95.6433105 11.4916,89.3355566 17.3408,85.6267383 C19.1428,84.4840234 19.732,82.1269238 18.6796,80.2695117 C16.9016,77.1308496 16,73.8332324 16,70.46875 C16,59.662207 24.8008,49.2480469 36,49.2480469 C46.6544,49.2480469 56,59.1645215 56,70.46875 C56,72.6801074 57.7908,74.4726562 60,74.4726562 C62.2092,74.4726562 64,72.6801074 64,70.46875 C64,54.625293 51.1776,41.2402344 36,41.2402344 C34.6608,41.2402344 33.3288,41.3487402 32.01,41.5541406 C32.008,41.4488379 32,41.3463379 32,41.2402344 C32,32.3047168 39.2468,25.2246094 48,25.2246094 C52.2728,25.2246094 56.292,26.8906348 59.3168,29.9151855 C60.8796,31.4779102 63.412,31.4763086 64.9736,29.9123828 C66.5348,28.3476562 66.5336,25.8127832 64.9708,24.2500586 C61.3216,20.6012988 56.706,18.2742285 51.704,17.5030762 C55.2316,12.2615625 61.0976,8.0078125 68,8.0078125 C78.6544,8.0078125 88,17.9238867 88,29.2285156 L88,60.6115332 Z M156,131.728516 C162.3,131.728516 168.2676,129.36501 173.0652,125.430771 C174.974,128.547012 176,132.100879 176,135.732422 C176,141.606553 173.3424,147.189199 168.7092,151.048564 C167.538,152.023916 167.0224,153.580234 167.3788,155.06248 C167.8028,156.8254 168,158.316855 168,159.755459 C168,172.183584 156.77,182.227783 146.6452,180.842432 C146.364,180.803994 146.0824,180.765957 145.7996,180.733926 C144.0848,180.539736 142.4444,181.463037 141.72,183.026562 C137.7864,191.510439 129.2604,196.992188 120,196.992188 C106.9908,196.992188 96,185.440518 96,171.767578 C96,158.521055 106.7664,147.744141 120,147.744141 C122.2088,147.744141 124,145.951592 124,143.740234 C124,141.528877 122.2088,139.736328 120,139.736328 C110.4492,139.736328 101.8684,143.951641 96,150.614541 L96,74.4726562 C96,70.0571484 99.5888,66.4648438 104,66.4648438 C106.2088,66.4648438 108,64.6722949 108,62.4609375 C108,60.2495801 106.2088,58.4570312 104,58.4570312 C101.0868,58.4570312 98.3552,59.2441992 96,60.6115332 L96,29.2285156 C96,17.9238867 105.3456,8.0078125 116,8.0078125 C122.9024,8.0078125 128.768,12.2615625 132.2956,17.5026758 C127.294,18.2738281 122.6788,20.6008984 119.0292,24.2496582 C117.466,25.8123828 117.4644,28.3472559 119.0256,29.9119824 C120.5868,31.476709 123.12,31.4779102 124.6824,29.9151855 C127.7084,26.8906348 131.7272,25.2246094 136,25.2246094 C144.7972,25.2246094 152,32.3463574 152,41.2402344 C152,41.3459375 151.992,41.4488379 151.99,41.5541406 C150.6712,41.3487402 149.3392,41.2402344 148,41.2402344 C132.8224,41.2402344 120,54.625293 120,70.46875 C120,72.6801074 121.7912,74.4726562 124,74.4726562 C126.2088,74.4726562 128,72.6801074 128,70.46875 C128,59.1645215 137.3456,49.2480469 148,49.2480469 C159.1928,49.2480469 168,59.657002 168,70.46875 C168,73.8332324 167.0984,77.1308496 165.3204,80.2695117 C164.2684,82.1269238 164.8576,84.4840234 166.6596,85.6267383 C172.5084,89.3355566 176,95.6433105 176,102.5 C176,113.843467 166.8236,123.720703 156,123.720703 C153.7912,123.720703 152,125.513252 152,127.724609 C152,129.935967 153.7912,131.728516 156,131.728516 Z" id="Shape" fill-rule="nonzero"></path>
                <path d="M78.9812,85.7048145 C77.5084,84.0568066 74.98,83.9158691 73.3332,85.3901074 C60.506,96.8753125 40,87.6963574 40,70.46875 C40,68.2573926 38.2092,66.4648438 36,66.4648438 C33.7908,66.4648438 32,68.2573926 32,70.46875 C32,84.3683105 42.1628,95.9315918 55.44,98.1185254 C53.9,102.974463 49.3544,106.503906 44,106.503906 C41.7908,106.503906 40,108.296455 40,110.507812 C40,112.71917 41.7908,114.511719 44,114.511719 C53.7428,114.511719 61.876,107.500879 63.6408,98.2550586 C69.2036,97.526748 74.4392,95.1440234 78.6668,91.3583301 C80.3132,89.8840918 80.454,87.3528223 78.9812,85.7048145 Z" id="Path"></path>
                <path d="M36,155.751953 C33.7908,155.751953 32,157.544502 32,159.755859 C32,161.967217 33.7908,163.759766 36,163.759766 C46.6544,163.759766 56,173.67624 56,184.980469 C56,187.191826 57.7908,188.984375 60,188.984375 C62.2092,188.984375 64,187.191826 64,184.980469 C64,169.137012 51.1776,155.751953 36,155.751953 Z" id="Path"></path>
                <path d="M68,123.720703 C54.4456,123.720703 42.808,131.161963 36.68,141.981719 C35.5908,143.905596 36.2656,146.34918 38.1872,147.439443 C40.1092,148.529707 42.55,147.854648 43.6396,145.930771 C48.4136,137.500146 57.472,131.728516 68,131.728516 C70.2092,131.728516 72,129.935967 72,127.724609 C72,125.513252 70.2092,123.720703 68,123.720703 Z" id="Path"></path>
                <path d="M140,106.503906 C134.6456,106.503906 130.1,102.974463 128.56,98.1185254 C141.8372,95.9315918 152,84.3683105 152,70.46875 C152,68.2573926 150.2088,66.4648438 148,66.4648438 C145.7912,66.4648438 144,68.2573926 144,70.46875 C144,81.5075195 135.028,90.4882812 124,90.4882812 C119.0736,90.4882812 114.3388,88.6777148 110.6668,85.3901074 C109.0208,83.9158691 106.4916,84.0564063 105.0188,85.7048145 C103.5456,87.3528223 103.6868,89.8840918 105.3332,91.3583301 C109.5608,95.1440234 114.7968,97.526748 120.3592,98.2550586 C122.124,107.500879 130.2572,114.511719 140,114.511719 C142.2088,114.511719 144,112.71917 144,110.507812 C144,108.296455 142.2088,106.503906 140,106.503906 Z" id="Path"></path>
                <path d="M148,155.751953 C132.8224,155.751953 120,169.137012 120,184.980469 C120,187.191826 121.7912,188.984375 124,188.984375 C126.2088,188.984375 128,187.191826 128,184.980469 C128,173.67624 137.3456,163.759766 148,163.759766 C150.2088,163.759766 152,161.967217 152,159.755859 C152,157.544502 150.2088,155.751953 148,155.751953 Z" id="Path"></path>
                <path d="M147.32,141.982119 C141.2072,131.187988 129.5856,123.720703 116,123.720703 C113.7912,123.720703 112,125.513252 112,127.724609 C112,129.935967 113.7912,131.728516 116,131.728516 C126.5204,131.728516 135.5856,137.498545 140.3596,145.930771 C141.4504,147.857051 143.8932,148.528906 145.812,147.439844 C147.734,146.34958 148.4088,143.905996 147.32,141.982119 Z" id="Path"></path>
            </g>
        </g>
        <text id="Comprendre" font-family="IBMPlexSans-Light, IBM Plex Sans" font-size="35" font-weight="300" letter-spacing="-0.449999988" fill="#FFFFFF">
            <tspan x="84" y="461">Comprendre</tspan>
        </text>
        <text id="Diverger" font-family="IBMPlexSans-Light, IBM Plex Sans" font-size="35" font-weight="300" letter-spacing="-0.449999988" fill="#FFFFFF">
            <tspan x="580.4525" y="461">Diverger</tspan>
        </text>
        <text id="Converger" font-family="IBMPlexSans-Light, IBM Plex Sans" font-size="35" font-weight="300" letter-spacing="-0.449999988" fill="#FFFFFF">
            <tspan x="1026.4675" y="461">Converger</tspan>
        </text>
        <text id="Prototyper" font-family="IBMPlexSans-Light, IBM Plex Sans" font-size="35" font-weight="300" letter-spacing="-0.449999988" fill="#FFFFFF">
            <tspan x="1443" y="461">Prototyper</tspan>
        </text>
        <text id="Tester" font-family="IBMPlexSans-Light, IBM Plex Sans" font-size="35" font-weight="300" letter-spacing="-0.449999988" fill="#FFFFFF">
            <tspan x="1934.225" y="461">Tester</tspan>
        </text>
        <g id="adjust" transform="translate(1436.000000, 109.000000)" fill="#FFFFFF">
            <g id="Shape">
                <path d="M199.246474,35.7372062 L195.422907,27.5224124 L156.614082,66.3303918 L138.681443,48.3977526 L177.489845,9.58935052 L169.275052,5.76536082 C161.171845,1.99378351 152.142969,0 143.163124,0 C126.643082,0 111.112536,6.43319588 99.4313402,18.1143918 C82.1893608,35.3559485 76.7841237,61.2535773 85.3336804,83.8111856 L7.45608247,161.696392 C2.66373196,166.47268 0.0198659794,172.833598 0.0126804124,179.607474 C0.00464948454,186.391495 2.63921649,192.768897 7.43241237,197.567165 C12.2247629,202.359938 18.5945567,204.999155 25.368433,204.999155 C32.1473814,204.999155 38.520134,202.357825 43.3124845,197.562938 L121.198536,119.673505 C128.179948,122.312722 135.688866,123.694041 143.16566,123.694464 C159.685701,123.694464 175.217093,117.260845 186.897866,105.580072 C205.207113,87.2708247 210.169381,59.2031546 199.246474,35.7372062 Z M177.931124,96.6141753 C168.644835,105.900464 156.299186,111.014474 143.168619,111.014474 C136.02067,111.014052 128.840598,109.429423 122.401907,106.432196 L118.37968,104.559299 L34.3444742,188.598309 C31.9461856,190.997866 28.7583299,192.319165 25.3680103,192.319165 C21.9814948,192.319165 18.7961753,190.998711 16.4008454,188.603381 C14.0059381,186.205938 12.6892887,183.015969 12.6930928,179.621845 C12.6968969,176.237866 14.0160825,173.061423 16.4156392,170.67032 L100.45,86.6275052 L98.5779485,82.605701 C89.8952474,63.950701 93.8413918,41.6369794 108.39766,27.0807113 C117.683948,17.7944227 130.030443,12.6804124 143.163124,12.6804124 C147.148155,12.6804124 151.144175,13.1736804 155.016773,14.1297835 L120.748804,48.3977526 L156.614082,84.2634536 L190.887546,49.9904124 C194.955,66.4791753 190.230278,84.3150206 177.931124,96.6141753 Z" fill-rule="nonzero"></path>
            </g>
        </g>
        <g id="two-extend-arrows" transform="translate(544.000000, 109.000000)" fill="#FFFFFF">
            <g id="Shape">
                <path d="M194.544666,0.280367647 L120.572104,0.280367647 C115.501281,0.280367647 113.514821,2.53201797 112.6781,4.52172386 C110.979241,8.47500817 114.08969,12.166683 114.926077,13.2925082 L132.439029,31.3837582 L124.806542,39.0287173 C117.749258,46.0975327 110.404038,53.4547549 103.346754,60.5235703 C97.1258564,66.7546324 97.1258564,72.4098856 103.059152,78.6148203 C108.992781,84.5581454 114.926077,90.7630801 120.833287,96.7060703 L126.191713,101.78518 C127.0281,102.622933 128.178173,103.774886 129.302162,104.612639 C131.288622,106.026536 133.536599,106.864289 135.784576,106.864289 C138.032553,106.864289 140.306615,106.026536 142.005473,104.612639 C143.129462,103.774886 144.25345,102.622933 145.403524,101.497108 L174.208197,72.6453676 L191.72115,89.8988644 C192.557537,90.7366176 195.119201,92.7263235 198.203564,92.7263235 C200.739144,92.7263235 204.973581,91.0246895 204.973581,84.2436111 L204.973581,11.0408578 C205.261517,3.97204248 199.903091,0.280367647 194.544666,0.280367647 Z M194.805848,78.0390114 L178.155701,61.6493954 C176.169241,59.6596895 172.797276,59.6596895 170.810816,61.6493954 L169.974429,62.4871487 C169.399225,63.0632925 168.85044,63.324902 168.562838,63.9010458 L138.346574,94.166683 C137.510188,95.0044363 136.647716,95.5805801 135.810995,96.4183333 C134.974608,95.8421895 134.399405,95.2925082 133.824535,94.7166993 L128.466109,89.6372549 C122.532814,83.4061928 116.337667,77.4889951 110.691974,71.5460049 C109.855587,70.7082516 109.567985,70.1321078 109.280383,69.8443709 C109.567985,69.556299 109.855587,69.0066176 110.691974,68.1427369 C117.749258,61.0739216 125.094478,53.7166993 132.151762,46.647884 L141.457023,37.3274183 C142.032227,36.7512745 142.293409,36.2015931 142.868613,35.9135212 L143.443817,35.3373775 C145.430277,33.3476716 145.430277,29.9701961 143.443817,27.9804902 L127.080938,11.0150654 L194.544666,11.0150654 L194.832268,11.0150654 C194.832268,11.0150654 194.832268,11.0150654 194.832268,11.3031373 L194.805848,78.0390114 Z M84.4486297,108.592721 L79.0902039,103.225539 C78.2538173,102.387786 77.1037439,101.235833 75.9797553,100.39808 C72.0329201,97.5706209 67.223279,97.5706209 63.2764437,100.39808 C62.1524551,101.235833 61.0284666,102.387786 59.8783931,103.513611 C52.8211093,110.582426 46.051093,117.363505 38.9934747,124.432655 L31.0994698,132.339559 L13.5865171,115.086062 C12.7501305,114.248309 10.1884666,112.258603 7.10410277,112.258603 C4.56852365,112.258603 0.33408646,113.960237 0.33408646,120.741315 L0.33408646,193.970531 C0.33408646,201.039346 5.69251223,204.704894 11.050938,204.704894 L85.0231648,204.704894 C90.0939886,204.704894 92.0804486,202.453243 92.9171697,200.463538 C94.6160277,196.510253 91.5055791,192.818578 90.6691925,191.692753 L73.1562398,173.601503 L81.3375122,165.406863 C88.3947961,158.338047 95.1648124,151.556969 102.222431,144.487819 C108.443328,138.256757 108.443328,132.601503 102.510033,126.396569 C96.2894698,120.452908 90.3558401,114.536046 84.4486297,108.592721 Z M94.5902773,137.418333 C87.820261,144.487149 80.7629772,151.268227 73.7053589,158.337377 L63.537292,168.522059 C62.9620881,169.098203 62.4133034,169.647884 62.1257015,169.935956 L61.5504976,170.5121 C59.5640375,172.501806 59.5640375,175.879281 61.5504976,177.868987 L77.9133768,194.834412 L10.4760685,194.834412 L10.1884666,194.834412 C10.1884666,194.834412 10.1884666,194.834412 10.1884666,194.54634 L10.1884666,127.260114 L26.8389478,143.64973 C28.8254078,145.639436 31.9097716,145.639436 34.1838336,143.64973 L35.0202202,143.073587 C35.5954241,142.497443 36.1442088,141.947761 36.7190783,141.65969 L46.3119413,132.051152 C53.3692251,124.982337 60.1392414,118.201258 67.1968597,111.132108 C68.0332463,110.294355 68.8957178,109.718211 69.7324388,108.880458 C70.5688254,109.456601 71.1440294,110.006283 71.7188989,110.582092 L77.0773246,115.949273 C83.0109543,121.892598 88.9442496,127.835588 94.85146,133.752451 C95.6878467,134.590204 95.9754486,135.166348 96.2630506,135.454085 C96.0018679,135.742827 95.4530832,136.292508 94.5902773,137.418333 Z" fill-rule="nonzero"></path>
            </g>
        </g>
        <g id="two-converge-arrows" transform="translate(997.000000, 109.000000)" fill="#FFFFFF">
            <g id="two-extend-arrows" transform="translate(0.000000, 0.334967)">
                <path d="M96.1443199,98.0908252 L22.1717587,98.0908252 C17.1009349,98.0908252 15.1144749,100.342475 14.2777538,102.332181 C12.5788958,106.285466 15.6893444,109.977141 16.525731,111.102966 L34.0386837,129.194216 L26.4061959,136.839175 C19.3489121,143.90799 12.0036918,151.265212 4.94640799,158.334028 C-1.27448924,164.56509 -1.27448924,170.220343 4.65880603,176.425278 C10.5924357,182.368603 16.525731,188.573538 22.4329414,194.516528 L27.7913672,199.595637 C28.6277538,200.433391 29.7778272,201.585343 30.9018158,202.423096 C32.8882759,203.836993 35.136253,204.674747 37.3842302,204.674747 C39.6322073,204.674747 41.9062693,203.836993 43.6051274,202.423096 C44.729116,201.585343 45.8531046,200.433391 47.003178,199.307565 L75.8078517,170.455825 L93.3208044,187.709322 C94.157191,188.547075 96.718855,190.536781 99.8032188,190.536781 C102.338798,190.536781 106.573235,188.835147 106.573235,182.054069 L106.573235,108.851315 C106.861171,101.7825 101.502746,98.0908252 96.1443199,98.0908252 Z M96.136659,175.833725 L79.4865122,159.444109 C77.5000521,157.454404 74.1280864,157.454404 72.1416264,159.444109 L71.3052397,160.281863 C70.7300358,160.858007 70.1812512,161.119616 69.8936492,161.69576 L39.6773849,191.961397 C38.8409983,192.79915 37.9785269,193.375294 37.1418058,194.213047 C36.3054192,193.636904 35.7302153,193.087222 35.1553458,192.511413 L29.79692,187.431969 C23.8636247,181.200907 17.6684779,175.283709 12.0227846,169.340719 C11.186398,168.502966 10.898796,167.926822 10.6111941,167.639085 C10.898796,167.351013 11.186398,166.801332 12.0227846,165.937451 C19.0800685,158.868636 26.4252887,151.511413 33.4825725,144.442598 L42.7878335,135.122132 C43.3630375,134.545989 43.6242202,133.996307 44.1994241,133.708235 L44.774628,133.132092 C46.761088,131.142386 46.761088,127.76491 44.774628,125.775204 L28.4117487,108.809779 L95.8754763,108.809779 L96.1630782,108.809779 C96.1630782,108.809779 96.1630782,108.809779 96.1630782,109.097851 L96.136659,175.833725 Z M182.452443,10.5956025 L177.094017,5.22842116 C176.257631,4.39066789 175.107557,3.23871528 173.983569,2.40096201 C170.036733,-0.426497141 165.227092,-0.426497141 161.280257,2.40096201 C160.156268,3.23871528 159.03228,4.39066789 157.882206,5.51649306 C150.824923,12.5853084 144.054906,19.3663868 136.997288,26.4355372 L129.103283,34.3424408 L111.59033,17.088944 C110.753944,16.2511908 108.19228,14.2614849 105.107916,14.2614849 C102.572337,14.2614849 98.3378998,15.9631189 98.3378998,22.7441973 L98.3378998,95.973413 C98.3378998,103.042228 103.696326,106.707776 109.054751,106.707776 L183.026978,106.707776 C188.097802,106.707776 190.084262,104.456125 190.920983,102.46642 C192.619841,98.5131352 189.509392,94.8214604 188.673006,93.6956352 L171.160053,75.6043852 L179.341326,67.4097447 C186.398609,60.3409293 193.168626,53.5598509 200.226244,46.4907006 C206.447141,40.2596385 206.447141,34.6043852 200.513846,28.3994506 C194.293283,22.4557904 188.359653,16.5389277 182.452443,10.5956025 Z M192.437916,39.5371977 C185.6679,46.6060131 178.610616,53.3870915 171.552998,60.4562418 L161.384931,70.6409232 C160.809727,71.217067 160.260942,71.7667484 159.97334,72.0548203 L159.398136,72.6309641 C157.411676,74.6206699 157.411676,77.9981454 159.398136,79.9878513 L175.761016,96.9532761 L108.323707,96.9532761 L108.036105,96.9532761 C108.036105,96.9532761 108.036105,96.9532761 108.036105,96.6652042 L108.036105,29.3789788 L124.686587,45.7685948 C126.673047,47.7583007 129.75741,47.7583007 132.031472,45.7685948 L132.867859,45.192451 C133.443063,44.6163072 133.991848,44.0666258 134.566717,43.7785539 L144.15958,34.1700163 C151.216864,27.101201 157.98688,20.3201225 165.044498,13.2509722 C165.880885,12.413219 166.743357,11.8370752 167.580078,10.9993219 C168.416464,11.5754657 168.991668,12.1251471 169.566538,12.7009559 L174.924963,18.0681373 C180.858593,24.0114624 186.791888,29.9544526 192.699099,35.8713154 C193.535485,36.7090686 193.823087,37.2852124 194.110689,37.5729493 C193.849507,37.8616912 193.300722,38.4113725 192.437916,39.5371977 Z" id="Shape" fill-rule="nonzero"></path>
            </g>
        </g>
        <g id="approval" transform="translate(1910.000000, 109.000000)" fill="#FFFFFF">
            <g id="Shape">
                <path d="M86,196.992188 C86,201.415253 82.41875,205 78,205 L32,205 C14.3546876,205 0,190.631294 0,172.96875 L0,32.03125 C0,14.3687058 14.3546876,0 32,0 L130.35625,0 C148,0 162.35625,14.3687058 162.35625,32.03125 L162.35625,116.914062 C162.35625,121.337128 158.773438,124.921875 154.35625,124.921875 C149.9375,124.921875 146.35625,121.337128 146.35625,116.914062 L146.35625,32.03125 C146.35625,23.2007597 139.178125,16.015625 130.35625,16.015625 L32,16.015625 C23.1781248,16.015625 16,23.2007597 16,32.03125 L16,172.96875 C16,181.79924 23.1781248,188.984375 32,188.984375 L78,188.984375 C82.41875,188.984375 86,192.569122 86,196.992188 Z M180.25625,130.422554 C176.664062,127.848168 171.667188,128.677101 169.095312,132.271233 L129.6625,187.406273 C128.585938,188.65593 127.235938,188.924942 126.514062,188.973427 C125.767188,189.021912 124.323438,188.92807 123.084375,187.74723 L97.55625,163.210792 C94.3703124,160.14843 89.30625,160.250092 86.2453124,163.440704 C83.1843752,166.631317 83.2875,171.700325 86.475,174.762688 L112.028125,199.32415 C115.85625,202.969895 120.964062,205 126.220312,205 C126.671875,205 127.125,204.98436 127.578125,204.954643 C133.303125,204.573021 138.648438,201.785927 142.24375,197.306557 C142.335938,197.192383 142.426562,197.073517 142.5125,196.953087 L182.104688,141.594391 C184.676562,137.998695 183.85,132.996941 180.25625,130.422554 Z M122.35625,48.046875 L39.95625,48.046875 C35.5375,48.046875 31.95625,51.6316223 31.95625,56.0546875 C31.95625,60.4777527 35.5375,64.0625 39.95625,64.0625 L122.35625,64.0625 C126.773438,64.0625 130.35625,60.4777527 130.35625,56.0546875 C130.35625,51.6316223 126.773438,48.046875 122.35625,48.046875 Z M130.35625,88.0859375 C130.35625,83.6628723 126.773438,80.078125 122.35625,80.078125 L39.95625,80.078125 C35.5375,80.078125 31.95625,83.6628723 31.95625,88.0859375 C31.95625,92.5090027 35.5375,96.09375 39.95625,96.09375 L122.35625,96.09375 C126.773438,96.09375 130.35625,92.5090027 130.35625,88.0859375 Z M39.95625,112.109375 C35.5375,112.109375 31.95625,115.694122 31.95625,120.117188 C31.95625,124.540253 35.5375,128.125 39.95625,128.125 L90,128.125 C94.41875,128.125 98,124.540253 98,120.117188 C98,115.694122 94.41875,112.109375 90,112.109375 L39.95625,112.109375 Z" fill-rule="nonzero"></path>
            </g>
        </g>
    </g>
</svg>