<?xml version="1.0" encoding="UTF-8"?>
<svg width="413px" height="406px" viewBox="0 0 413 406" version="1.1" xmlns="http://www.w3.org/2000/svg" xmlns:xlink="http://www.w3.org/1999/xlink">
    <!-- Generator: Sketch 52.2 (67145) - http://www.bohemiancoding.com/sketch -->
    <title>running</title>
    <desc>Created with Sketch.</desc>
    <g id="running" stroke="none" stroke-width="1" fill="none" fill-rule="evenodd">
        <g>
            <path d="M52.622,81.691 C59.35,107.268 80.56,128.463 185.182,232.991 C192.765,240.567 200.778,248.573 209.248,257.043 C254.756,302.55 321.146,316.239 386.113,324.253 C387.811,324.462 389.457,324.583 391.056,324.63 C389.528,320.633 386.503,317.081 382.227,314.575 C337.351,288.28 314.785,265.317 296.178,227.459 L272.89,227.459 C267.367,227.459 262.89,222.981 262.89,217.459 C262.89,211.936 267.367,207.459 272.89,207.459 L287.228,207.459 C285.121,202.338 283.026,196.964 280.914,191.311 L257.89,191.311 C252.367,191.311 247.89,186.833 247.89,181.311 C247.89,175.789 252.368,171.311 257.89,171.311 L273.744,171.311 C268.75,156.889 263.49,140.836 257.6,122.773 C252.665,124.896 246.871,130.26 245.361,143.603 C244.989,146.892 243.013,149.784 240.086,151.327 C233.33,154.886 225.835,156.69 217.809,156.69 C181.478,156.69 140.02,118.963 127.224,85.231 C118.303,61.713 126.952,49.355 132.902,44.082 C138.817,38.84 141.055,33.266 139.205,28.388 C137.493,23.874 132.645,20.598 127.679,20.598 C125.531,20.598 123.449,21.201 121.492,22.388 C102.901,33.672 74.241,58.441 52.622,81.691 Z" id="Path" fill="#F7CF40"></path>
            <path d="M106.284,204.139 C106.29,204.145 106.296,204.15 106.302,204.155 C106.308,204.161 106.312,204.167 106.318,204.173 C114.616,212.46 123.823,221.618 134.052,231.792 C148.721,246.383 165.347,262.92 184.359,281.931 C214.027,311.599 252.574,327.739 293.812,337.604 C293.844,337.611 293.876,337.614 293.908,337.622 C293.951,337.632 293.991,337.648 294.034,337.659 C309.098,341.253 324.518,344.01 339.997,346.286 C340.088,346.297 340.178,346.299 340.269,346.312 C340.359,346.325 340.444,346.349 340.532,346.365 C347.428,347.374 354.333,348.293 361.223,349.143 C363.401,349.412 365.529,349.548 367.545,349.548 C374.989,349.548 381.154,347.671 385.47,344.3 C384.869,344.24 384.268,344.179 383.662,344.104 C315.149,335.653 244.888,320.969 195.104,271.187 C186.636,262.719 178.625,254.715 171.044,247.141 C78.104,154.283 48.847,125.051 37.518,99.213 C34.46,103.115 31.78,106.839 29.585,110.293 C33.427,125.977 42.021,138.39 72.522,169.986 C72.568,170.032 72.618,170.072 72.664,170.119 C72.706,170.163 72.741,170.21 72.782,170.254 C81.869,179.659 92.883,190.757 106.284,204.139 Z" id="Path" fill="#6ECCAE"></path>
            <polygon id="Path" fill="#FFEBD4" points="20 207.828 20 385.596 197.75 385.578"></polygon>
            <path d="M20.325,139.288 C18.18,142.657 18.178,147.13 20.673,150.552 C22.631,153.236 25.674,154.659 28.76,154.659 C29.617,154.659 30.476,154.542 31.317,154.319 C36.694,160.889 43.418,168.371 51.881,177.307 C50.311,180.904 50.949,185.246 53.842,188.248 C55.805,190.286 58.423,191.311 61.045,191.311 C62.288,191.311 63.532,191.08 64.708,190.618 C70.928,196.985 77.873,203.993 85.637,211.773 C84.145,215.396 84.869,219.716 87.814,222.659 C89.767,224.609 92.324,225.585 94.882,225.585 C96.182,225.585 97.482,225.33 98.702,224.826 C105.196,231.3 112.17,238.238 119.681,245.708 C118.198,249.333 118.932,253.65 121.882,256.586 C123.833,258.527 126.384,259.497 128.935,259.497 C130.241,259.497 131.546,259.24 132.772,258.731 C139.379,265.305 146.346,272.244 153.71,279.589 C152.218,283.214 152.944,287.536 155.891,290.477 C157.843,292.425 160.399,293.399 162.955,293.399 C164.257,293.399 165.558,293.144 166.78,292.638 C167.917,293.774 169.062,294.919 170.216,296.073 C176.549,302.406 183.217,308.165 190.166,313.421 C189.24,317.321 190.719,321.561 194.219,323.969 C195.95,325.161 197.924,325.732 199.878,325.732 C201.883,325.732 203.866,325.127 205.544,323.976 C214.503,329.541 223.84,334.41 233.47,338.694 C233.427,342.698 235.799,346.503 239.737,348.084 C240.959,348.574 242.219,348.807 243.459,348.807 C246.204,348.807 248.831,347.647 250.717,345.65 C260.37,349.175 270.254,352.204 280.292,354.843 C280.893,358.745 283.783,362.086 287.861,363.056 C288.639,363.241 289.416,363.328 290.182,363.328 C293.424,363.328 296.443,361.734 298.3,359.143 C308.19,361.284 318.181,363.114 328.207,364.714 C329.167,368.513 332.321,371.552 336.439,372.162 C336.936,372.235 337.428,372.27 337.917,372.27 C341.476,372.27 344.706,370.362 346.48,367.401 C350.581,367.956 354.68,368.485 358.773,368.99 C361.761,369.358 364.713,369.546 367.545,369.546 C393.68,369.546 407.07,354.519 410.887,340.455 C415.407,323.804 407.951,306.469 392.336,297.318 C350.681,272.909 330.219,252.189 312.702,215.553 C312.385,213.913 311.67,212.417 310.658,211.169 C299.463,186.659 289.2,155.183 274.937,111.428 L273.927,108.329 C272.659,104.44 269.026,101.708 264.945,101.442 C264.945,101.442 264.614,101.421 264.001,101.421 C260.708,101.421 233.084,102.424 226.411,135.432 C223.723,136.268 220.845,136.689 217.808,136.689 C191.056,136.689 155.921,104.494 145.922,78.136 C143.921,72.862 141.292,63.367 146.165,59.049 C158.378,48.226 162.766,34.111 157.903,21.292 C153.28,9.106 140.851,0.596 127.677,0.596 C121.899,0.596 116.171,2.219 111.112,5.29 C84.272,21.584 28.886,71.122 10.289,103.559 C9.091,105.649 8.688,108.101 9.153,110.464 C11.2,120.865 14.096,129.344 20.325,139.288 Z M139.203,28.387 C141.054,33.266 138.815,38.839 132.9,44.081 C126.95,49.354 118.3,61.713 127.222,85.23 C140.018,118.962 181.477,156.689 217.807,156.689 C225.833,156.689 233.328,154.884 240.084,151.326 C243.012,149.783 244.987,146.891 245.359,143.602 C246.869,130.259 252.664,124.895 257.598,122.772 C263.488,140.835 268.748,156.888 273.742,171.31 L257.888,171.31 C252.365,171.31 247.888,175.788 247.888,181.31 C247.888,186.832 252.366,191.31 257.888,191.31 L280.912,191.31 C283.023,196.963 285.118,202.337 287.226,207.458 L272.888,207.458 C267.365,207.458 262.888,211.935 262.888,217.458 C262.888,222.98 267.365,227.458 272.888,227.458 L296.176,227.458 C314.782,265.316 337.349,288.279 382.225,314.574 C386.501,317.08 389.526,320.632 391.054,324.629 C389.455,324.582 387.809,324.461 386.111,324.252 C321.144,316.238 254.754,302.549 209.246,257.042 C200.776,248.572 192.763,240.566 185.18,232.99 C80.56,128.463 59.35,107.269 52.622,81.691 C74.241,58.44 102.901,33.671 121.49,22.387 C123.447,21.199 125.529,20.597 127.677,20.597 C132.643,20.597 137.491,23.873 139.203,28.387 Z M72.523,169.985 C42.022,138.389 33.428,125.976 29.586,110.292 C31.781,106.838 34.461,103.114 37.519,99.212 C48.849,125.05 78.105,154.282 171.045,247.14 C178.626,254.714 186.637,262.718 195.105,271.186 C244.889,320.968 315.15,335.652 383.663,344.103 C384.269,344.178 384.871,344.24 385.471,344.299 C381.154,347.67 374.99,349.547 367.546,349.547 C365.529,349.547 363.401,349.41 361.224,349.142 C354.334,348.292 347.429,347.372 340.533,346.364 C340.444,346.348 340.359,346.325 340.27,346.311 C340.179,346.298 340.089,346.296 339.998,346.285 C324.52,344.009 309.099,341.253 294.035,337.658 C293.992,337.647 293.952,337.632 293.909,337.621 C293.877,337.613 293.845,337.61 293.813,337.603 C252.575,327.738 214.028,311.598 184.36,281.93 C165.349,262.919 148.723,246.382 134.053,231.791 C123.824,221.617 114.616,212.459 106.319,204.172 C106.313,204.166 106.309,204.16 106.303,204.154 C106.297,204.148 106.291,204.143 106.285,204.138 C92.885,190.756 81.87,179.658 72.784,170.252 C72.743,170.208 72.708,170.16 72.666,170.117 C72.62,170.07 72.57,170.031 72.523,169.985 Z" id="Shape" fill="#000000" fill-rule="nonzero"></path>
            <path d="M402.009,385.559 L226.032,385.577 L17.071,176.616 C14.211,173.757 9.91,172.902 6.174,174.448 C2.436,175.995 0,179.642 0,183.687 L0,395.597 C0,398.249 1.054,400.793 2.929,402.668 C4.804,404.544 7.348,405.597 10.001,405.597 L402.011,405.559 C407.534,405.558 412.011,401.08 412.01,395.558 C412.009,390.035 407.531,385.558 402.009,385.559 Z M20,207.828 L197.75,385.578 L20,385.596 L20,207.828 Z" id="Shape" fill="#000000" fill-rule="nonzero"></path>
        </g>
    </g>
</svg>