<?xml version="1.0" encoding="UTF-8"?>
<svg width="485px" height="485px" viewBox="0 0 485 485" version="1.1" xmlns="http://www.w3.org/2000/svg" xmlns:xlink="http://www.w3.org/1999/xlink">
    <!-- Generator: Sketch 52.2 (67145) - http://www.bohemiancoding.com/sketch -->
    <title>adjust</title>
    <desc>Created with Sketch.</desc>
    <g id="adjust" stroke="none" stroke-width="1" fill="none" fill-rule="evenodd">
        <rect fill="#9B9B9B" x="0" y="0" width="485" height="485"></rect>
        <g fill="#FFFFFF" fill-rule="nonzero" id="Shape">
            <path d="M471.388,84.549 L462.342,65.114 L370.526,156.928 L328.1,114.502 L419.915,22.687 L400.48,13.64 C381.309,4.717 359.948,0 338.703,0 C299.619,0 262.876,15.22 235.24,42.856 C194.448,83.647 181.66,144.917 201.887,198.285 L17.64,382.55 C6.302,393.85 0.047,408.899 0.03,424.925 C0.011,440.975 6.244,456.063 17.584,467.415 C28.922,478.754 43.992,484.998 60.018,484.998 C76.056,484.998 91.133,478.749 102.471,467.405 L286.738,283.13 C303.255,289.374 321.02,292.642 338.709,292.643 C377.793,292.643 414.538,277.422 442.173,249.787 C485.49,206.47 497.23,140.066 471.388,84.549 Z M420.959,228.575 C398.989,250.545 369.781,262.644 338.716,262.644 C321.805,262.643 304.818,258.894 289.585,251.803 L280.069,247.372 L81.254,446.196 C75.58,451.873 68.038,454.999 60.017,454.999 C52.005,454.999 44.469,451.875 38.802,446.208 C33.136,440.536 30.021,432.989 30.03,424.959 C30.039,416.953 33.16,409.438 38.837,403.781 L237.65,204.948 L233.221,195.433 C212.679,151.298 222.015,98.507 256.453,64.069 C278.423,42.099 307.633,30 338.703,30 C348.131,30 357.585,31.167 366.747,33.429 L285.674,114.502 L370.526,199.355 L451.612,118.27 C461.235,157.28 450.057,199.477 420.959,228.575 Z"></path>
        </g>
    </g>
</svg>